<svg width="633" height="700" viewBox="0 0 633 700" fill="none" xmlns="http://www.w3.org/2000/svg">
<path d="M342.458 700C278.095 700 219.804 684.829 167.586 654.486C115.367 624.144 74.3813 582.271 44.6288 528.869C14.8763 475.466 0 415.691 0 349.545C0 283.398 14.8763 223.624 44.6288 170.221C74.3813 116.818 115.063 75.2492 166.675 45.5137C218.894 15.1712 277.488 0 342.458 0C389.819 0 433.233 8.19246 472.701 24.5774C512.775 40.3554 546.475 61.8986 573.799 89.2068C601.122 116.515 620.856 147.161 633 181.144L508.222 241.222C496.078 207.239 475.433 179.931 446.288 159.298C417.142 138.058 382.532 127.438 342.458 127.438C302.99 127.438 267.773 136.844 236.806 155.657C206.446 173.862 182.765 199.957 165.764 233.94C149.37 267.317 141.173 305.852 141.173 349.545C141.173 393.238 149.37 432.076 165.764 466.06C182.765 499.436 206.446 525.531 236.806 544.343C267.773 563.156 302.99 572.562 342.458 572.562C382.532 572.562 417.142 562.245 446.288 541.612C475.433 520.373 496.078 492.761 508.222 458.778L633 518.856C620.856 552.839 601.122 583.485 573.799 610.793C546.475 638.101 512.775 659.948 472.701 676.333C433.233 692.111 389.819 700 342.458 700Z" fill="url(#paint0_linear_728_5)"/>
<defs>
<linearGradient id="paint0_linear_728_5" x1="499.5" y1="180.5" x2="138" y2="540.5" gradientUnits="userSpaceOnUse">
<stop stop-color="#54C594"/>
<stop offset="1" stop-color="#22577A"/>
</linearGradient>
</defs>
</svg>
