<svg width="683" height="720" viewBox="0 0 683 720" fill="none" xmlns="http://www.w3.org/2000/svg">
<path d="M355.534 720C289.417 720 229.226 704.395 174.96 673.186C120.695 641.977 77.968 598.908 46.7808 543.979C15.5936 489.051 0 427.568 0 359.532C0 291.495 15.2817 230.013 45.8452 175.084C76.4087 120.156 118.2 77.3992 171.218 46.8141C224.86 15.6047 285.051 0 351.792 0C400.444 0 445.042 8.42653 485.585 25.2796C526.752 41.5084 561.37 63.6671 589.438 91.7555C617.507 119.844 637.779 151.365 650.253 186.32L522.074 248.114C509.599 213.16 488.392 185.072 458.452 163.849C428.512 142.003 392.959 131.079 351.792 131.079C311.248 131.079 275.071 140.754 243.26 160.104C212.073 178.83 187.747 205.67 170.282 240.624C153.441 274.954 145.021 314.59 145.021 359.532C145.021 404.473 153.753 444.421 171.218 479.376C189.306 513.706 214.256 540.546 246.067 559.896C278.502 579.246 314.991 588.921 355.534 588.921C387.969 588.921 417.909 582.679 445.353 570.195C473.422 557.711 495.877 539.922 512.718 516.827C529.559 493.108 537.979 465.644 537.979 434.434V432.562H351.792V310.845H683V384.811C683 457.217 667.406 518.7 636.219 569.259C605.032 619.818 564.489 657.581 514.589 682.549C464.689 707.516 411.671 720 355.534 720Z" fill="url(#paint0_linear_714_6)"/>
<defs>
<linearGradient id="paint0_linear_714_6" x1="527" y1="174.5" x2="161.5" y2="540" gradientUnits="userSpaceOnUse">
<stop stop-color="#54C594"/>
<stop offset="1" stop-color="#22577A"/>
</linearGradient>
</defs>
</svg>
